<?xml version="1.0"?>
<svg width="1280" height="1280" xmlns="http://www.w3.org/2000/svg" xmlns:svg="http://www.w3.org/2000/svg" preserveAspectRatio="xMidYMid meet">
 <metadata>Created by potrace 1.15, written by Peter Selinger 2001-2017</metadata>
 <g class="layer">
  <title>Layer 1</title>
  <g fill="#9e9e9e" id="svg_1" opacity="0.3" transform="translate(0 1280) scale(0.1 -0.1)">
   <path d="m550,12465c-105,-35 -200,-141 -222,-248c-43,-206 163,-412 369,-369c155,32 275,190 260,339c-11,105 -90,213 -190,262c-61,29 -155,36 -217,16z" fill="#cccccc" id="svg_2"/>
   <path d="m1830,12465c-151,-50 -253,-216 -222,-362c25,-119 136,-230 254,-255c194,-41 395,142 375,339c-11,105 -90,213 -190,262c-61,29 -155,36 -217,16z" fill="#cccccc" id="svg_3"/>
   <path d="m3110,12465c-105,-35 -200,-141 -222,-248c-43,-206 163,-412 369,-369c155,32 275,190 260,339c-11,105 -90,213 -190,262c-61,29 -155,36 -217,16z" fill="#cccccc" id="svg_4"/>
   <path d="m4390,12465c-105,-35 -200,-141 -222,-248c-43,-206 163,-412 369,-369c155,32 275,190 260,339c-11,105 -90,213 -190,262c-61,29 -155,36 -217,16z" fill="#cccccc" id="svg_5"/>
   <path d="m5670,12465c-105,-35 -200,-141 -222,-248c-43,-206 163,-412 369,-369c155,32 275,190 260,339c-11,105 -90,213 -190,262c-61,29 -155,36 -217,16z" fill="#cccccc" id="svg_6"/>
   <path d="m6950,12465c-105,-35 -200,-141 -222,-248c-43,-206 163,-412 369,-369c155,32 275,190 260,339c-11,105 -90,213 -190,262c-61,29 -155,36 -217,16z" fill="#cccccc" id="svg_7"/>
   <path d="m8230,12465c-105,-35 -200,-141 -222,-248c-43,-206 163,-412 369,-369c155,32 275,190 260,339c-11,105 -90,213 -190,262c-61,29 -155,36 -217,16z" fill="#cccccc" id="svg_8"/>
   <path d="m9510,12465c-105,-35 -200,-141 -222,-248c-43,-206 163,-412 369,-369c155,32 275,190 260,339c-11,105 -90,213 -190,262c-61,29 -155,36 -217,16z" fill="#cccccc" id="svg_9"/>
   <path d="m10790,12465c-105,-35 -200,-141 -222,-248c-25,-117 32,-244 142,-319c107,-74 229,-75 337,-3c177,118 201,338 53,485c-85,86 -207,119 -310,85z" fill="#cccccc" id="svg_10"/>
   <path d="m12070,12465c-105,-35 -200,-141 -222,-248c-25,-117 32,-244 142,-319c107,-74 229,-75 337,-3c177,118 201,338 53,485c-85,86 -207,119 -310,85z" fill="#cccccc" id="svg_11"/>
   <path d="m550,11185c-105,-35 -200,-141 -222,-248c-43,-206 163,-412 369,-369c155,32 275,190 260,339c-11,105 -90,213 -190,262c-61,29 -155,36 -217,16z" fill="#cccccc" id="svg_12"/>
   <path d="m1830,11185c-151,-50 -253,-216 -222,-362c25,-119 136,-230 254,-255c194,-41 395,142 375,339c-11,105 -90,213 -190,262c-61,29 -155,36 -217,16z" fill="#cccccc" id="svg_13"/>
   <path d="m3110,11185c-105,-35 -200,-141 -222,-248c-43,-206 163,-412 369,-369c155,32 275,190 260,339c-11,105 -90,213 -190,262c-61,29 -155,36 -217,16z" fill="#cccccc" id="svg_14"/>
   <path d="m4390,11185c-105,-35 -200,-141 -222,-248c-43,-206 163,-412 369,-369c155,32 275,190 260,339c-11,105 -90,213 -190,262c-61,29 -155,36 -217,16z" fill="#cccccc" id="svg_15"/>
   <path d="m5670,11185c-105,-35 -200,-141 -222,-248c-43,-206 163,-412 369,-369c155,32 275,190 260,339c-11,105 -90,213 -190,262c-61,29 -155,36 -217,16z" fill="#cccccc" id="svg_16"/>
   <path d="m6950,11185c-105,-35 -200,-141 -222,-248c-43,-206 163,-412 369,-369c155,32 275,190 260,339c-11,105 -90,213 -190,262c-61,29 -155,36 -217,16z" fill="#cccccc" id="svg_17"/>
   <path d="m8230,11185c-105,-35 -200,-141 -222,-248c-43,-206 163,-412 369,-369c155,32 275,190 260,339c-11,105 -90,213 -190,262c-61,29 -155,36 -217,16z" fill="#cccccc" id="svg_18"/>
   <path d="m9510,11185c-105,-35 -200,-141 -222,-248c-43,-206 163,-412 369,-369c155,32 275,190 260,339c-11,105 -90,213 -190,262c-61,29 -155,36 -217,16z" fill="#cccccc" id="svg_19"/>
   <path d="m10790,11185c-105,-35 -200,-141 -222,-248c-25,-117 32,-244 142,-319c107,-74 229,-75 337,-3c177,118 201,338 53,485c-85,86 -207,119 -310,85z" fill="#cccccc" id="svg_20"/>
   <path d="m12070,11185c-105,-35 -200,-141 -222,-248c-25,-117 32,-244 142,-319c107,-74 229,-75 337,-3c177,118 201,338 53,485c-85,86 -207,119 -310,85z" fill="#cccccc" id="svg_21"/>
   <path d="m550,9905c-105,-35 -200,-141 -222,-248c-43,-206 163,-412 369,-369c155,32 275,190 260,339c-11,105 -90,213 -190,262c-61,29 -155,36 -217,16z" fill="#cccccc" id="svg_22"/>
   <path d="m1830,9905c-105,-35 -200,-141 -222,-248c-43,-206 163,-412 369,-369c155,32 275,190 260,339c-11,105 -90,213 -190,262c-61,29 -155,36 -217,16z" fill="#cccccc" id="svg_23"/>
   <path d="m3110,9905c-105,-35 -200,-141 -222,-248c-43,-206 163,-412 369,-369c155,32 275,190 260,339c-11,105 -90,213 -190,262c-61,29 -155,36 -217,16z" fill="#cccccc" id="svg_24"/>
   <path d="m4390,9905c-105,-35 -200,-141 -222,-248c-43,-206 163,-412 369,-369c155,32 275,190 260,339c-11,105 -90,213 -190,262c-61,29 -155,36 -217,16z" fill="#cccccc" id="svg_25"/>
   <path d="m5670,9905c-105,-35 -200,-141 -222,-248c-43,-206 163,-412 369,-369c155,32 275,190 260,339c-11,105 -90,213 -190,262c-61,29 -155,36 -217,16z" fill="#cccccc" id="svg_26"/>
   <path d="m6950,9905c-105,-35 -200,-141 -222,-248c-43,-206 163,-412 369,-369c155,32 275,190 260,339c-11,105 -90,213 -190,262c-61,29 -155,36 -217,16z" fill="#cccccc" id="svg_27"/>
   <path d="m8230,9905c-105,-35 -200,-141 -222,-248c-43,-206 163,-412 369,-369c155,32 275,190 260,339c-11,105 -90,213 -190,262c-61,29 -155,36 -217,16z" fill="#cccccc" id="svg_28"/>
   <path d="m9510,9905c-105,-35 -200,-141 -222,-248c-43,-206 163,-412 369,-369c155,32 275,190 260,339c-11,105 -90,213 -190,262c-61,29 -155,36 -217,16z" fill="#cccccc" id="svg_29"/>
   <path d="m10790,9905c-105,-35 -200,-141 -222,-248c-43,-206 163,-412 369,-369c155,32 275,190 260,339c-11,105 -90,213 -190,262c-61,29 -155,36 -217,16z" fill="#cccccc" id="svg_30"/>
   <path d="m12070,9905c-105,-35 -200,-141 -222,-248c-43,-206 163,-412 369,-369c155,32 275,190 260,339c-11,105 -90,213 -190,262c-61,29 -155,36 -217,16z" fill="#cccccc" id="svg_31"/>
   <path d="m550,8625c-105,-35 -200,-141 -222,-248c-43,-206 163,-412 369,-369c155,32 275,190 260,339c-11,105 -90,213 -190,262c-61,29 -155,36 -217,16z" fill="#cccccc" id="svg_32"/>
   <path d="m1830,8625c-105,-35 -200,-141 -222,-248c-43,-206 163,-412 369,-369c155,32 275,190 260,339c-11,105 -90,213 -190,262c-61,29 -155,36 -217,16z" fill="#cccccc" id="svg_33"/>
   <path d="m3110,8625c-105,-35 -200,-141 -222,-248c-43,-206 163,-412 369,-369c155,32 275,190 260,339c-11,105 -90,213 -190,262c-61,29 -155,36 -217,16z" fill="#cccccc" id="svg_34"/>
   <path d="m4390,8625c-105,-35 -200,-141 -222,-248c-43,-206 163,-412 369,-369c155,32 275,190 260,339c-11,105 -90,213 -190,262c-61,29 -155,36 -217,16z" fill="#cccccc" id="svg_35"/>
   <path d="m5670,8625c-105,-35 -200,-141 -222,-248c-43,-206 163,-412 369,-369c155,32 275,190 260,339c-11,105 -90,213 -190,262c-61,29 -155,36 -217,16z" fill="#cccccc" id="svg_36"/>
   <path d="m6950,8625c-105,-35 -200,-141 -222,-248c-43,-206 163,-412 369,-369c155,32 275,190 260,339c-11,105 -90,213 -190,262c-61,29 -155,36 -217,16z" fill="#cccccc" id="svg_37"/>
   <path d="m8230,8625c-105,-35 -200,-141 -222,-248c-43,-206 163,-412 369,-369c155,32 275,190 260,339c-11,105 -90,213 -190,262c-61,29 -155,36 -217,16z" fill="#cccccc" id="svg_38"/>
   <path d="m9510,8625c-105,-35 -200,-141 -222,-248c-43,-206 163,-412 369,-369c155,32 275,190 260,339c-11,105 -90,213 -190,262c-61,29 -155,36 -217,16z" fill="#cccccc" id="svg_39"/>
   <path d="m10790,8625c-105,-35 -200,-141 -222,-248c-43,-206 163,-412 369,-369c155,32 275,190 260,339c-11,105 -90,213 -190,262c-61,29 -155,36 -217,16z" fill="#cccccc" id="svg_40"/>
   <path d="m12070,8625c-105,-35 -200,-141 -222,-248c-43,-206 163,-412 369,-369c155,32 275,190 260,339c-11,105 -90,213 -190,262c-61,29 -155,36 -217,16z" fill="#cccccc" id="svg_41"/>
   <path d="m550,7345c-105,-35 -200,-141 -222,-248c-43,-206 163,-412 369,-369c155,32 275,190 260,339c-11,105 -90,213 -190,262c-61,29 -155,36 -217,16z" fill="#cccccc" id="svg_42"/>
   <path d="m1830,7345c-105,-35 -200,-141 -222,-248c-43,-206 163,-412 369,-369c155,32 275,190 260,339c-11,105 -90,213 -190,262c-61,29 -155,36 -217,16z" fill="#cccccc" id="svg_43"/>
   <path d="m3110,7345c-105,-35 -200,-141 -222,-248c-43,-206 163,-412 369,-369c155,32 275,190 260,339c-11,105 -90,213 -190,262c-61,29 -155,36 -217,16z" fill="#cccccc" id="svg_44"/>
   <path d="m4390,7345c-105,-35 -200,-141 -222,-248c-43,-206 163,-412 369,-369c155,32 275,190 260,339c-11,105 -90,213 -190,262c-61,29 -155,36 -217,16z" fill="#cccccc" id="svg_45"/>
   <path d="m5670,7345c-105,-35 -200,-141 -222,-248c-43,-206 163,-412 369,-369c155,32 275,190 260,339c-11,105 -90,213 -190,262c-61,29 -155,36 -217,16z" fill="#cccccc" id="svg_46"/>
   <path d="m6950,7345c-105,-35 -200,-141 -222,-248c-43,-206 163,-412 369,-369c155,32 275,190 260,339c-11,105 -90,213 -190,262c-61,29 -155,36 -217,16z" fill="#cccccc" id="svg_47"/>
   <path d="m8230,7345c-105,-35 -200,-141 -222,-248c-43,-206 163,-412 369,-369c155,32 275,190 260,339c-11,105 -90,213 -190,262c-61,29 -155,36 -217,16z" fill="#cccccc" id="svg_48"/>
   <path d="m9510,7345c-105,-35 -200,-141 -222,-248c-43,-206 163,-412 369,-369c155,32 275,190 260,339c-11,105 -90,213 -190,262c-61,29 -155,36 -217,16z" fill="#cccccc" id="svg_49"/>
   <path d="m10790,7345c-105,-35 -200,-141 -222,-248c-43,-206 163,-412 369,-369c155,32 275,190 260,339c-11,105 -90,213 -190,262c-61,29 -155,36 -217,16z" fill="#cccccc" id="svg_50"/>
   <path d="m12070,7345c-105,-35 -200,-141 -222,-248c-43,-206 163,-412 369,-369c155,32 275,190 260,339c-11,105 -90,213 -190,262c-61,29 -155,36 -217,16z" fill="#cccccc" id="svg_51"/>
   <path d="m550,6065c-105,-35 -200,-141 -222,-248c-43,-206 163,-412 369,-369c155,32 275,190 260,339c-11,105 -90,213 -190,262c-61,29 -155,36 -217,16z" fill="#cccccc" id="svg_52"/>
   <path d="m1830,6065c-105,-35 -200,-141 -222,-248c-43,-206 163,-412 369,-369c155,32 275,190 260,339c-11,105 -90,213 -190,262c-61,29 -155,36 -217,16z" fill="#cccccc" id="svg_53"/>
   <path d="m3110,6065c-105,-35 -200,-141 -222,-248c-43,-206 163,-412 369,-369c155,32 275,190 260,339c-11,105 -90,213 -190,262c-61,29 -155,36 -217,16z" fill="#cccccc" id="svg_54"/>
   <path d="m4390,6065c-105,-35 -200,-141 -222,-248c-43,-206 163,-412 369,-369c155,32 275,190 260,339c-11,105 -90,213 -190,262c-61,29 -155,36 -217,16z" fill="#cccccc" id="svg_55"/>
   <path d="m5670,6065c-105,-35 -200,-141 -222,-248c-43,-206 163,-412 369,-369c155,32 275,190 260,339c-11,105 -90,213 -190,262c-61,29 -155,36 -217,16z" fill="#cccccc" id="svg_56"/>
   <path d="m6950,6065c-105,-35 -200,-141 -222,-248c-43,-206 163,-412 369,-369c155,32 275,190 260,339c-11,105 -90,213 -190,262c-61,29 -155,36 -217,16z" fill="#cccccc" id="svg_57"/>
   <path d="m8230,6065c-105,-35 -200,-141 -222,-248c-43,-206 163,-412 369,-369c155,32 275,190 260,339c-11,105 -90,213 -190,262c-61,29 -155,36 -217,16z" fill="#cccccc" id="svg_58"/>
   <path d="m9510,6065c-105,-35 -200,-141 -222,-248c-43,-206 163,-412 369,-369c155,32 275,190 260,339c-11,105 -90,213 -190,262c-61,29 -155,36 -217,16z" fill="#cccccc" id="svg_59"/>
   <path d="m10790,6065c-105,-35 -200,-141 -222,-248c-43,-206 163,-412 369,-369c155,32 275,190 260,339c-11,105 -90,213 -190,262c-61,29 -155,36 -217,16z" fill="#cccccc" id="svg_60"/>
   <path d="m12070,6065c-105,-35 -200,-141 -222,-248c-43,-206 163,-412 369,-369c155,32 275,190 260,339c-11,105 -90,213 -190,262c-61,29 -155,36 -217,16z" fill="#cccccc" id="svg_61"/>
   <path d="m550,4785c-105,-35 -200,-141 -222,-248c-43,-206 163,-412 369,-369c155,32 275,190 260,339c-11,105 -90,213 -190,262c-61,29 -155,36 -217,16z" fill="#cccccc" id="svg_62"/>
   <path d="m1830,4785c-105,-35 -200,-141 -222,-248c-43,-206 163,-412 369,-369c155,32 275,190 260,339c-11,105 -90,213 -190,262c-61,29 -155,36 -217,16z" fill="#cccccc" id="svg_63"/>
   <path d="m3110,4785c-105,-35 -200,-141 -222,-248c-25,-117 32,-244 142,-319c107,-74 229,-75 337,-3c177,118 201,338 53,485c-85,86 -207,119 -310,85z" fill="#cccccc" id="svg_64"/>
   <path d="m4390,4785c-105,-35 -200,-141 -222,-248c-25,-117 32,-244 142,-319c107,-74 229,-75 337,-3c177,118 201,338 53,485c-85,86 -207,119 -310,85z" fill="#cccccc" id="svg_65"/>
   <path d="m5670,4785c-151,-50 -253,-216 -222,-362c25,-119 136,-230 255,-255c193,-41 394,142 374,339c-11,105 -90,213 -190,262c-61,29 -155,36 -217,16z" fill="#cccccc" id="svg_66"/>
   <path d="m6950,4785c-151,-50 -253,-216 -222,-362c25,-119 136,-230 255,-255c193,-41 394,142 374,339c-11,105 -90,213 -190,262c-61,29 -155,36 -217,16z" fill="#cccccc" id="svg_67"/>
   <path d="m8230,4785c-151,-50 -253,-216 -222,-362c25,-119 136,-230 255,-255c193,-41 394,142 374,339c-11,105 -90,213 -190,262c-61,29 -155,36 -217,16z" fill="#cccccc" id="svg_68"/>
   <path d="m9510,4785c-151,-50 -253,-216 -222,-362c25,-119 136,-230 255,-255c193,-41 394,142 374,339c-11,105 -90,213 -190,262c-61,29 -155,36 -217,16z" fill="#cccccc" id="svg_69"/>
   <path d="m10790,4785c-105,-35 -200,-141 -222,-248c-43,-206 163,-412 369,-369c155,32 275,190 260,339c-11,105 -90,213 -190,262c-61,29 -155,36 -217,16z" fill="#cccccc" id="svg_70"/>
   <path d="m12070,4785c-105,-35 -200,-141 -222,-248c-43,-206 163,-412 369,-369c155,32 275,190 260,339c-11,105 -90,213 -190,262c-61,29 -155,36 -217,16z" fill="#cccccc" id="svg_71"/>
   <path d="m550,3505c-105,-35 -200,-141 -222,-248c-43,-206 163,-412 369,-369c155,32 275,190 260,339c-11,105 -90,213 -190,262c-61,29 -155,36 -217,16z" fill="#cccccc" id="svg_72"/>
   <path d="m1830,3505c-105,-35 -200,-141 -222,-248c-43,-206 163,-412 369,-369c155,32 275,190 260,339c-11,105 -90,213 -190,262c-61,29 -155,36 -217,16z" fill="#cccccc" id="svg_73"/>
   <path d="m3110,3505c-105,-35 -200,-141 -222,-248c-25,-117 32,-244 142,-319c107,-74 229,-75 337,-3c177,118 201,338 53,485c-85,86 -207,119 -310,85z" fill="#cccccc" id="svg_74"/>
   <path d="m4390,3505c-105,-35 -200,-141 -222,-248c-25,-117 32,-244 142,-319c107,-74 229,-75 337,-3c177,118 201,338 53,485c-85,86 -207,119 -310,85z" fill="#cccccc" id="svg_75"/>
   <path d="m5670,3505c-151,-50 -253,-216 -222,-362c25,-119 136,-230 255,-255c193,-41 394,142 374,339c-11,105 -90,213 -190,262c-61,29 -155,36 -217,16z" fill="#cccccc" id="svg_76"/>
   <path d="m6950,3505c-151,-50 -253,-216 -222,-362c25,-119 136,-230 255,-255c193,-41 394,142 374,339c-11,105 -90,213 -190,262c-61,29 -155,36 -217,16z" fill="#cccccc" id="svg_77"/>
   <path d="m8230,3505c-151,-50 -253,-216 -222,-362c25,-119 136,-230 255,-255c193,-41 394,142 374,339c-11,105 -90,213 -190,262c-61,29 -155,36 -217,16z" fill="#cccccc" id="svg_78"/>
   <path d="m9510,3505c-151,-50 -253,-216 -222,-362c25,-119 136,-230 255,-255c193,-41 394,142 374,339c-11,105 -90,213 -190,262c-61,29 -155,36 -217,16z" fill="#cccccc" id="svg_79"/>
   <path d="m10790,3505c-105,-35 -200,-141 -222,-248c-43,-206 163,-412 369,-369c155,32 275,190 260,339c-11,105 -90,213 -190,262c-61,29 -155,36 -217,16z" fill="#cccccc" id="svg_80"/>
   <path d="m12070,3505c-105,-35 -200,-141 -222,-248c-43,-206 163,-412 369,-369c155,32 275,190 260,339c-11,105 -90,213 -190,262c-61,29 -155,36 -217,16z" fill="#cccccc" id="svg_81"/>
   <path d="m550,2225c-105,-35 -200,-141 -222,-248c-43,-206 163,-412 369,-369c155,32 275,190 260,339c-11,105 -90,213 -190,262c-61,29 -155,36 -217,16z" fill="#cccccc" id="svg_82"/>
   <path d="m1830,2225c-105,-35 -200,-141 -222,-248c-43,-206 163,-412 369,-369c155,32 275,190 260,339c-11,105 -90,213 -190,262c-61,29 -155,36 -217,16z" fill="#cccccc" id="svg_83"/>
   <path d="m3110,2225c-105,-35 -200,-141 -222,-248c-25,-117 32,-244 142,-319c107,-74 229,-75 337,-3c177,118 201,338 53,485c-85,86 -207,119 -310,85z" fill="#cccccc" id="svg_84"/>
   <path d="m4390,2225c-105,-35 -200,-141 -222,-248c-25,-117 32,-244 142,-319c107,-74 229,-75 337,-3c177,118 201,338 53,485c-85,86 -207,119 -310,85z" fill="#cccccc" id="svg_85"/>
   <path d="m5670,2225c-105,-35 -200,-141 -222,-248c-43,-206 163,-412 369,-369c155,32 275,190 260,339c-11,105 -90,213 -190,262c-61,29 -155,36 -217,16z" fill="#cccccc" id="svg_86"/>
   <path d="m6950,2225c-105,-35 -200,-141 -222,-248c-43,-206 163,-412 369,-369c155,32 275,190 260,339c-11,105 -90,213 -190,262c-61,29 -155,36 -217,16z" fill="#cccccc" id="svg_87"/>
   <path d="m8230,2225c-105,-35 -200,-141 -222,-248c-43,-206 163,-412 369,-369c155,32 275,190 260,339c-11,105 -90,213 -190,262c-61,29 -155,36 -217,16z" fill="#cccccc" id="svg_88"/>
   <path d="m9510,2225c-105,-35 -200,-141 -222,-248c-43,-206 163,-412 369,-369c155,32 275,190 260,339c-11,105 -90,213 -190,262c-61,29 -155,36 -217,16z" fill="#cccccc" id="svg_89"/>
   <path d="m10790,2225c-105,-35 -200,-141 -222,-248c-43,-206 163,-412 369,-369c155,32 275,190 260,339c-11,105 -90,213 -190,262c-61,29 -155,36 -217,16z" fill="#cccccc" id="svg_90"/>
   <path d="m12070,2225c-105,-35 -200,-141 -222,-248c-43,-206 163,-412 369,-369c155,32 275,190 260,339c-11,105 -90,213 -190,262c-61,29 -155,36 -217,16z" fill="#cccccc" id="svg_91"/>
   <path d="m550,945c-105,-35 -200,-141 -222,-248c-43,-206 163,-412 369,-369c155,32 275,190 260,339c-11,105 -90,213 -190,262c-61,29 -155,36 -217,16z" fill="#cccccc" id="svg_92"/>
   <path d="m1830,945c-105,-35 -200,-141 -222,-248c-43,-206 163,-412 369,-369c155,32 275,190 260,339c-11,105 -90,213 -190,262c-61,29 -155,36 -217,16z" fill="#cccccc" id="svg_93"/>
   <path d="m3110,945c-105,-35 -200,-141 -222,-248c-43,-206 163,-412 369,-369c155,32 275,190 260,339c-11,105 -90,213 -190,262c-61,29 -155,36 -217,16z" fill="#cccccc" id="svg_94"/>
   <path d="m4390,945c-105,-35 -200,-141 -222,-248c-43,-206 163,-412 369,-369c155,32 275,190 260,339c-11,105 -90,213 -190,262c-61,29 -155,36 -217,16z" fill="#cccccc" id="svg_95"/>
   <path d="m5670,945c-105,-35 -200,-141 -222,-248c-43,-206 163,-412 369,-369c155,32 275,190 260,339c-11,105 -90,213 -190,262c-61,29 -155,36 -217,16z" fill="#cccccc" id="svg_96"/>
   <path d="m6950,945c-105,-35 -200,-141 -222,-248c-43,-206 163,-412 369,-369c155,32 275,190 260,339c-11,105 -90,213 -190,262c-61,29 -155,36 -217,16z" fill="#cccccc" id="svg_97"/>
   <path d="m8230,945c-105,-35 -200,-141 -222,-248c-43,-206 163,-412 369,-369c155,32 275,190 260,339c-11,105 -90,213 -190,262c-61,29 -155,36 -217,16z" fill="#cccccc" id="svg_98"/>
   <path d="m9510,945c-105,-35 -200,-141 -222,-248c-43,-206 163,-412 369,-369c155,32 275,190 260,339c-11,105 -90,213 -190,262c-61,29 -155,36 -217,16z" fill="#cccccc" id="svg_99"/>
   <path d="m10790,945c-105,-35 -200,-141 -222,-248c-43,-206 163,-412 369,-369c155,32 275,190 260,339c-11,105 -90,213 -190,262c-61,29 -155,36 -217,16z" fill="#cccccc" id="svg_100"/>
   <path d="m12070,945c-105,-35 -200,-141 -222,-248c-43,-206 163,-412 369,-369c155,32 275,190 260,339c-11,105 -90,213 -190,262c-61,29 -155,36 -217,16z" fill="#cccccc" id="svg_101"/>
  </g>
 </g>
</svg>